# Blender v2.91.0 OBJ File: 'glock18.blend'
# www.blender.org
mtllib reload moving boi2.mtl
o Bullet_hole_blue_boi?_Cylinder.001
v -0.000000 1.426217 -0.622598
v 0.000000 1.305952 2.440541
v 0.033787 1.422890 -0.622598
v 0.010324 1.304935 2.440541
v 0.066276 1.413034 -0.622598
v 0.020252 1.301923 2.440541
v 0.096218 1.397030 -0.622598
v 0.029401 1.297033 2.440541
v 0.122462 1.375492 -0.622598
v 0.037421 1.290452 2.440541
v 0.144000 1.349248 -0.622598
v 0.044002 1.282432 2.440541
v 0.160004 1.319306 -0.622598
v 0.048893 1.273282 2.440541
v 0.169860 1.286817 -0.622598
v 0.051904 1.263355 2.440541
v 0.173187 1.253030 -0.622598
v 0.052921 1.253030 2.440541
v 0.169860 1.219243 -0.622598
v 0.051904 1.242706 2.440541
v 0.160004 1.186754 -0.622598
v 0.048893 1.232778 2.440541
v 0.144000 1.156812 -0.622598
v 0.044002 1.223629 2.440541
v 0.122462 1.130568 -0.622598
v 0.037421 1.215609 2.440541
v 0.096218 1.109030 -0.622598
v 0.029402 1.209028 2.440541
v 0.066276 1.093026 -0.622598
v 0.020252 1.204137 2.440541
v 0.033787 1.083170 -0.622598
v 0.010324 1.201126 2.440541
v -0.000000 1.079843 -0.622598
v -0.000000 1.200109 2.440541
v -0.033787 1.083170 -0.622598
v -0.010324 1.201126 2.440541
v -0.066276 1.093026 -0.622598
v -0.020252 1.204137 2.440541
v -0.096218 1.109030 -0.622598
v -0.029401 1.209028 2.440541
v -0.122462 1.130568 -0.622598
v -0.037421 1.215610 2.440541
v -0.144000 1.156812 -0.622598
v -0.044002 1.223629 2.440541
v -0.160004 1.186754 -0.622598
v -0.048893 1.232778 2.440541
v -0.169860 1.219243 -0.622598
v -0.051904 1.242706 2.440541
v -0.173187 1.253030 -0.622598
v -0.052921 1.253030 2.440541
v -0.169860 1.286817 -0.622598
v -0.051904 1.263355 2.440541
v -0.160004 1.319306 -0.622598
v -0.048893 1.273283 2.440541
v -0.144000 1.349248 -0.622598
v -0.044002 1.282432 2.440541
v -0.122462 1.375492 -0.622598
v -0.037421 1.290452 2.440541
v -0.096218 1.397030 -0.622598
v -0.029402 1.297033 2.440541
v -0.066276 1.413034 -0.622598
v -0.020252 1.301924 2.440541
v -0.033787 1.422890 -0.622598
v -0.010325 1.304935 2.440541
v 0.033787 1.422890 2.391964
v 0.000000 1.426217 2.391964
v 0.066276 1.413034 2.391964
v 0.096218 1.397030 2.391964
v 0.122462 1.375492 2.391964
v 0.144000 1.349248 2.391964
v 0.160004 1.319306 2.391964
v 0.169860 1.286817 2.391964
v 0.173187 1.253030 2.391964
v 0.169860 1.219243 2.391964
v 0.160004 1.186754 2.391964
v 0.144000 1.156812 2.391964
v 0.122462 1.130568 2.391964
v 0.096218 1.109030 2.391964
v 0.066276 1.093026 2.391964
v 0.033787 1.083170 2.391964
v -0.000000 1.079842 2.391964
v -0.033787 1.083170 2.391964
v -0.066276 1.093026 2.391964
v -0.096218 1.109030 2.391964
v -0.122462 1.130568 2.391964
v -0.144000 1.156812 2.391964
v -0.160004 1.186754 2.391964
v -0.169860 1.219243 2.391964
v -0.173187 1.253030 2.391964
v -0.169860 1.286817 2.391964
v -0.160004 1.319306 2.391964
v -0.144000 1.349248 2.391964
v -0.122462 1.375492 2.391964
v -0.096218 1.397030 2.391964
v -0.066276 1.413034 2.391964
v -0.033787 1.422890 2.391964
v 0.000000 1.384488 2.416253
v 0.025646 1.381963 2.416253
v 0.050307 1.374482 2.416253
v 0.073034 1.362334 2.416253
v 0.092955 1.345985 2.416253
v 0.109304 1.326064 2.416253
v 0.121452 1.303337 2.416253
v 0.128932 1.278676 2.416253
v 0.131458 1.253030 2.416253
v 0.128932 1.227384 2.416253
v 0.121452 1.202723 2.416253
v 0.109304 1.179996 2.416253
v 0.092955 1.160075 2.416253
v 0.073034 1.143727 2.416253
v 0.050307 1.131578 2.416253
v 0.025646 1.124098 2.416253
v -0.000000 1.121572 2.416253
v -0.025646 1.124098 2.416253
v -0.050307 1.131578 2.416253
v -0.073034 1.143727 2.416253
v -0.092955 1.160075 2.416253
v -0.109304 1.179996 2.416253
v -0.121452 1.202723 2.416253
v -0.128932 1.227384 2.416253
v -0.131458 1.253030 2.416253
v -0.128932 1.278677 2.416253
v -0.121452 1.303337 2.416253
v -0.109304 1.326065 2.416253
v -0.092955 1.345985 2.416253
v -0.073034 1.362334 2.416253
v -0.050307 1.374482 2.416253
v -0.025646 1.381962 2.416253
vt 1.000000 0.500000
vt 1.000000 1.000000
vt 0.968750 1.000000
vt 0.968750 0.500000
vt 0.937500 1.000000
vt 0.937500 0.500000
vt 0.906250 1.000000
vt 0.906250 0.500000
vt 0.875000 1.000000
vt 0.875000 0.500000
vt 0.843750 1.000000
vt 0.843750 0.500000
vt 0.812500 1.000000
vt 0.812500 0.500000
vt 0.781250 1.000000
vt 0.781250 0.500000
vt 0.750000 1.000000
vt 0.750000 0.500000
vt 0.718750 1.000000
vt 0.718750 0.500000
vt 0.687500 1.000000
vt 0.687500 0.500000
vt 0.656250 1.000000
vt 0.656250 0.500000
vt 0.625000 1.000000
vt 0.625000 0.500000
vt 0.593750 1.000000
vt 0.593750 0.500000
vt 0.562500 1.000000
vt 0.562500 0.500000
vt 0.531250 1.000000
vt 0.531250 0.500000
vt 0.500000 1.000000
vt 0.500000 0.500000
vt 0.468750 1.000000
vt 0.468750 0.500000
vt 0.437500 1.000000
vt 0.437500 0.500000
vt 0.406250 1.000000
vt 0.406250 0.500000
vt 0.375000 1.000000
vt 0.375000 0.500000
vt 0.343750 1.000000
vt 0.343750 0.500000
vt 0.312500 1.000000
vt 0.312500 0.500000
vt 0.281250 1.000000
vt 0.281250 0.500000
vt 0.250000 1.000000
vt 0.250000 0.500000
vt 0.218750 1.000000
vt 0.218750 0.500000
vt 0.187500 1.000000
vt 0.187500 0.500000
vt 0.156250 1.000000
vt 0.156250 0.500000
vt 0.125000 1.000000
vt 0.125000 0.500000
vt 0.093750 1.000000
vt 0.093750 0.500000
vt 0.062500 1.000000
vt 0.062500 0.500000
vt 0.031250 1.000000
vt 0.031250 0.500000
vt 0.000000 1.000000
vt 0.000000 0.500000
vt 0.750000 0.490000
vt 0.796822 0.485388
vt 0.841844 0.471731
vt 0.883337 0.449553
vt 0.919706 0.419706
vt 0.949553 0.383337
vt 0.971731 0.341844
vt 0.985388 0.296822
vt 0.990000 0.250000
vt 0.985388 0.203178
vt 0.971731 0.158156
vt 0.949553 0.116663
vt 0.919706 0.080294
vt 0.883337 0.050447
vt 0.841844 0.028269
vt 0.796822 0.014612
vt 0.750000 0.010000
vt 0.703178 0.014612
vt 0.658156 0.028269
vt 0.616663 0.050447
vt 0.580294 0.080294
vt 0.550447 0.116663
vt 0.528269 0.158156
vt 0.514611 0.203179
vt 0.510000 0.250000
vt 0.514612 0.296822
vt 0.528269 0.341844
vt 0.550447 0.383337
vt 0.580295 0.419706
vt 0.616663 0.449553
vt 0.658156 0.471731
vt 0.703179 0.485389
vt 0.250000 0.361536
vt 0.271760 0.359392
vt 0.296822 0.485388
vt 0.250000 0.490000
vt 0.292683 0.353045
vt 0.341844 0.471731
vt 0.311966 0.342738
vt 0.383337 0.449553
vt 0.328868 0.328868
vt 0.419706 0.419706
vt 0.342738 0.311966
vt 0.449553 0.383337
vt 0.353045 0.292683
vt 0.471731 0.341844
vt 0.359393 0.271760
vt 0.485388 0.296822
vt 0.361536 0.250000
vt 0.490000 0.250000
vt 0.359392 0.228241
vt 0.485388 0.203178
vt 0.353045 0.207317
vt 0.471731 0.158156
vt 0.342738 0.188034
vt 0.449553 0.116663
vt 0.328868 0.171132
vt 0.419706 0.080294
vt 0.311966 0.157262
vt 0.383337 0.050447
vt 0.292683 0.146955
vt 0.341844 0.028269
vt 0.271760 0.140608
vt 0.296822 0.014612
vt 0.250000 0.138464
vt 0.250000 0.010000
vt 0.228240 0.140608
vt 0.203178 0.014612
vt 0.207317 0.146955
vt 0.158156 0.028269
vt 0.188034 0.157262
vt 0.116663 0.050447
vt 0.171132 0.171133
vt 0.080294 0.080294
vt 0.157261 0.188034
vt 0.050447 0.116663
vt 0.146955 0.207317
vt 0.028269 0.158156
vt 0.140608 0.228241
vt 0.014611 0.203179
vt 0.138464 0.250000
vt 0.010000 0.250000
vt 0.140608 0.271760
vt 0.014612 0.296822
vt 0.146955 0.292683
vt 0.028269 0.341844
vt 0.157262 0.311966
vt 0.050447 0.383337
vt 0.171133 0.328868
vt 0.080295 0.419706
vt 0.188034 0.342739
vt 0.116663 0.449553
vt 0.207317 0.353045
vt 0.158156 0.471731
vt 0.228241 0.359392
vt 0.203179 0.485389
vt 0.253303 0.233396
vt 0.250000 0.233071
vt 0.256478 0.234360
vt 0.259405 0.235924
vt 0.261971 0.238030
vt 0.264076 0.240595
vt 0.265640 0.243522
vt 0.266604 0.246697
vt 0.266929 0.250000
vt 0.266604 0.253303
vt 0.265640 0.256478
vt 0.264076 0.259405
vt 0.261971 0.261971
vt 0.259405 0.264076
vt 0.256478 0.265640
vt 0.253303 0.266604
vt 0.250000 0.266929
vt 0.246697 0.266604
vt 0.243522 0.265640
vt 0.240595 0.264076
vt 0.238030 0.261970
vt 0.235924 0.259405
vt 0.234360 0.256478
vt 0.233396 0.253303
vt 0.233071 0.250000
vt 0.233397 0.246697
vt 0.234360 0.243522
vt 0.235924 0.240595
vt 0.238030 0.238030
vt 0.240595 0.235924
vt 0.243522 0.234360
vt 0.246697 0.233396
vn 0.0980 0.9952 0.0000
vn 0.2903 0.9569 0.0000
vn 0.4714 0.8819 0.0000
vn 0.6344 0.7730 0.0000
vn 0.7730 0.6344 0.0000
vn 0.8819 0.4714 0.0000
vn 0.9569 0.2903 0.0000
vn 0.9952 0.0980 0.0000
vn 0.9952 -0.0980 0.0000
vn 0.9569 -0.2903 0.0000
vn 0.8819 -0.4714 0.0000
vn 0.7730 -0.6344 0.0000
vn 0.6344 -0.7730 0.0000
vn 0.4714 -0.8819 0.0000
vn 0.2903 -0.9569 -0.0000
vn 0.0980 -0.9952 -0.0000
vn -0.0980 -0.9952 -0.0000
vn -0.2903 -0.9569 0.0000
vn -0.4714 -0.8819 0.0000
vn -0.6344 -0.7730 0.0000
vn -0.7730 -0.6344 0.0000
vn -0.8819 -0.4714 0.0000
vn -0.9569 -0.2903 0.0000
vn -0.9952 -0.0980 0.0000
vn -0.9952 0.0980 0.0000
vn -0.9569 0.2903 0.0000
vn -0.8819 0.4714 0.0000
vn -0.7730 0.6344 0.0000
vn -0.6344 0.7730 0.0000
vn -0.4714 0.8819 0.0000
vn -0.2903 0.9569 0.0000
vn -0.0980 0.9952 0.0000
vn -0.0000 0.0000 -1.0000
vn 0.0495 0.5024 0.8632
vn 0.1466 0.4831 0.8632
vn 0.2380 0.4452 0.8632
vn 0.3203 0.3903 0.8632
vn 0.3903 0.3203 0.8632
vn 0.4452 0.2380 0.8632
vn 0.4831 0.1466 0.8632
vn 0.5024 0.0495 0.8632
vn 0.5024 -0.0495 0.8632
vn 0.4831 -0.1466 0.8632
vn 0.4452 -0.2380 0.8632
vn 0.3903 -0.3203 0.8632
vn 0.3203 -0.3903 0.8632
vn 0.2380 -0.4452 0.8632
vn 0.1466 -0.4831 0.8632
vn 0.0495 -0.5024 0.8632
vn -0.0495 -0.5024 0.8632
vn -0.1466 -0.4831 0.8632
vn -0.2380 -0.4452 0.8632
vn -0.3203 -0.3903 0.8632
vn -0.3903 -0.3203 0.8632
vn -0.4452 -0.2380 0.8632
vn -0.4831 -0.1466 0.8632
vn -0.5024 -0.0495 0.8632
vn -0.5024 0.0495 0.8632
vn -0.4831 0.1466 0.8632
vn -0.4452 0.2380 0.8632
vn -0.3903 0.3203 0.8632
vn -0.3203 0.3903 0.8632
vn -0.2380 0.4452 0.8632
vn -0.1465 0.4831 0.8632
vn -0.0495 0.5024 0.8632
vn -0.0291 0.2953 0.9550
vn -0.0862 0.2840 0.9550
vn -0.1399 0.2617 0.9550
vn -0.1883 0.2294 0.9550
vn -0.2294 0.1883 0.9550
vn -0.2617 0.1399 0.9550
vn -0.2840 0.0861 0.9550
vn -0.2953 0.0291 0.9550
vn -0.2953 -0.0291 0.9550
vn -0.2840 -0.0861 0.9550
vn -0.2617 -0.1399 0.9550
vn -0.2294 -0.1883 0.9550
vn -0.1883 -0.2294 0.9550
vn -0.1399 -0.2617 0.9550
vn -0.0861 -0.2840 0.9550
vn -0.0291 -0.2953 0.9550
vn 0.0291 -0.2953 0.9550
vn 0.0862 -0.2840 0.9550
vn 0.1399 -0.2617 0.9550
vn 0.1883 -0.2294 0.9550
vn 0.2294 -0.1883 0.9550
vn 0.2617 -0.1399 0.9550
vn 0.2840 -0.0861 0.9550
vn 0.2953 -0.0291 0.9550
vn 0.2953 0.0291 0.9550
vn 0.2840 0.0861 0.9550
vn 0.2617 0.1399 0.9550
vn 0.2294 0.1883 0.9550
vn 0.1883 0.2294 0.9550
vn 0.1399 0.2617 0.9550
vn 0.0861 0.2840 0.9550
vn 0.0291 0.2953 0.9550
usemtl Material.001
s off
f 1/1/1 66/2/1 65/3/1 3/4/1
f 3/4/2 65/3/2 67/5/2 5/6/2
f 5/6/3 67/5/3 68/7/3 7/8/3
f 7/8/4 68/7/4 69/9/4 9/10/4
f 9/10/5 69/9/5 70/11/5 11/12/5
f 11/12/6 70/11/6 71/13/6 13/14/6
f 13/14/7 71/13/7 72/15/7 15/16/7
f 15/16/8 72/15/8 73/17/8 17/18/8
f 17/18/9 73/17/9 74/19/9 19/20/9
f 19/20/10 74/19/10 75/21/10 21/22/10
f 21/22/11 75/21/11 76/23/11 23/24/11
f 23/24/12 76/23/12 77/25/12 25/26/12
f 25/26/13 77/25/13 78/27/13 27/28/13
f 27/28/14 78/27/14 79/29/14 29/30/14
f 29/30/15 79/29/15 80/31/15 31/32/15
f 31/32/16 80/31/16 81/33/16 33/34/16
f 33/34/17 81/33/17 82/35/17 35/36/17
f 35/36/18 82/35/18 83/37/18 37/38/18
f 37/38/19 83/37/19 84/39/19 39/40/19
f 39/40/20 84/39/20 85/41/20 41/42/20
f 41/42/21 85/41/21 86/43/21 43/44/21
f 43/44/22 86/43/22 87/45/22 45/46/22
f 45/46/23 87/45/23 88/47/23 47/48/23
f 47/48/24 88/47/24 89/49/24 49/50/24
f 49/50/25 89/49/25 90/51/25 51/52/25
f 51/52/26 90/51/26 91/53/26 53/54/26
f 53/54/27 91/53/27 92/55/27 55/56/27
f 55/56/28 92/55/28 93/57/28 57/58/28
f 57/58/29 93/57/29 94/59/29 59/60/29
f 59/60/30 94/59/30 95/61/30 61/62/30
f 61/62/31 95/61/31 96/63/31 63/64/31
f 63/64/32 96/63/32 66/65/32 1/66/32
f 1/67/33 3/68/33 5/69/33 7/70/33 9/71/33 11/72/33 13/73/33 15/74/33 17/75/33 19/76/33 21/77/33 23/78/33 25/79/33 27/80/33 29/81/33 31/82/33 33/83/33 35/84/33 37/85/33 39/86/33 41/87/33 43/88/33 45/89/33 47/90/33 49/91/33 51/92/33 53/93/33 55/94/33 57/95/33 59/96/33 61/97/33 63/98/33
f 97/99/34 98/100/34 65/101/34 66/102/34
f 98/100/35 99/103/35 67/104/35 65/101/35
f 99/103/36 100/105/36 68/106/36 67/104/36
f 100/105/37 101/107/37 69/108/37 68/106/37
f 101/107/38 102/109/38 70/110/38 69/108/38
f 102/109/39 103/111/39 71/112/39 70/110/39
f 103/111/40 104/113/40 72/114/40 71/112/40
f 104/113/41 105/115/41 73/116/41 72/114/41
f 105/115/42 106/117/42 74/118/42 73/116/42
f 106/117/43 107/119/43 75/120/43 74/118/43
f 107/119/44 108/121/44 76/122/44 75/120/44
f 108/121/45 109/123/45 77/124/45 76/122/45
f 109/123/46 110/125/46 78/126/46 77/124/46
f 110/125/47 111/127/47 79/128/47 78/126/47
f 111/127/48 112/129/48 80/130/48 79/128/48
f 112/129/49 113/131/49 81/132/49 80/130/49
f 113/131/50 114/133/50 82/134/50 81/132/50
f 114/133/51 115/135/51 83/136/51 82/134/51
f 115/135/52 116/137/52 84/138/52 83/136/52
f 116/137/53 117/139/53 85/140/53 84/138/53
f 117/139/54 118/141/54 86/142/54 85/140/54
f 118/141/55 119/143/55 87/144/55 86/142/55
f 119/143/56 120/145/56 88/146/56 87/144/56
f 120/145/57 121/147/57 89/148/57 88/146/57
f 121/147/58 122/149/58 90/150/58 89/148/58
f 122/149/59 123/151/59 91/152/59 90/150/59
f 123/151/60 124/153/60 92/154/60 91/152/60
f 124/153/61 125/155/61 93/156/61 92/154/61
f 125/155/62 126/157/62 94/158/62 93/156/62
f 126/157/63 127/159/63 95/160/63 94/158/63
f 127/159/64 128/161/64 96/162/64 95/160/64
f 128/161/65 97/99/65 66/102/65 96/162/65
f 64/163/66 2/164/66 97/99/66 128/161/66
f 62/165/67 64/163/67 128/161/67 127/159/67
f 60/166/68 62/165/68 127/159/68 126/157/68
f 58/167/69 60/166/69 126/157/69 125/155/69
f 56/168/70 58/167/70 125/155/70 124/153/70
f 54/169/71 56/168/71 124/153/71 123/151/71
f 52/170/72 54/169/72 123/151/72 122/149/72
f 50/171/73 52/170/73 122/149/73 121/147/73
f 48/172/74 50/171/74 121/147/74 120/145/74
f 46/173/75 48/172/75 120/145/75 119/143/75
f 44/174/76 46/173/76 119/143/76 118/141/76
f 42/175/77 44/174/77 118/141/77 117/139/77
f 40/176/78 42/175/78 117/139/78 116/137/78
f 38/177/79 40/176/79 116/137/79 115/135/79
f 36/178/80 38/177/80 115/135/80 114/133/80
f 34/179/81 36/178/81 114/133/81 113/131/81
f 32/180/82 34/179/82 113/131/82 112/129/82
f 30/181/83 32/180/83 112/129/83 111/127/83
f 28/182/84 30/181/84 111/127/84 110/125/84
f 26/183/85 28/182/85 110/125/85 109/123/85
f 24/184/86 26/183/86 109/123/86 108/121/86
f 22/185/87 24/184/87 108/121/87 107/119/87
f 20/186/88 22/185/88 107/119/88 106/117/88
f 18/187/89 20/186/89 106/117/89 105/115/89
f 16/188/90 18/187/90 105/115/90 104/113/90
f 14/189/91 16/188/91 104/113/91 103/111/91
f 12/190/92 14/189/92 103/111/92 102/109/92
f 10/191/93 12/190/93 102/109/93 101/107/93
f 8/192/94 10/191/94 101/107/94 100/105/94
f 6/193/95 8/192/95 100/105/95 99/103/95
f 4/194/96 6/193/96 99/103/96 98/100/96
f 2/164/97 4/194/97 98/100/97 97/99/97
