# Blender v2.91.0 OBJ File: 'glock18.blend'
# www.blender.org
mtllib magazine.mtl
o mag_Cube
v 0.392716 -1.641868 -1.350984
v 0.392716 0.623994 -0.940796
v 0.392716 -1.588695 -2.371091
v 0.392716 0.639187 -1.729223
v 0.392716 0.267873 -1.908363
v 0.392716 -0.103441 -1.984957
v 0.392716 -0.474754 -2.122319
v 0.392716 -0.846068 -2.259682
v 0.392716 -1.217382 -2.351468
v 0.392716 0.246351 -1.009161
v 0.392716 -0.131293 -1.077525
v 0.392716 -0.508937 -1.145890
v 0.392716 -0.886581 -1.214254
v 0.392716 -1.264224 -1.282619
v -0.392716 -1.641868 -1.350984
v -0.392716 0.623994 -0.940796
v -0.392716 -1.588695 -2.371091
v -0.392716 0.639187 -1.729223
v -0.392716 0.267873 -1.908363
v -0.392716 -0.103441 -1.984957
v -0.392716 -0.474754 -2.122319
v -0.392716 -0.846068 -2.259682
v -0.392716 -1.217382 -2.351468
v -0.392716 0.246351 -1.009161
v -0.392716 -0.131293 -1.077525
v -0.392716 -0.508937 -1.145890
v -0.392716 -0.886581 -1.214254
v -0.392716 -1.264224 -1.282619
v 0.000000 -1.588695 -2.371091
v 0.000000 0.639187 -1.729223
v 0.000000 -1.641868 -1.350984
v 0.000000 0.623994 -0.940796
v 0.000000 -1.264224 -1.282619
v 0.000000 -0.886581 -1.214254
v 0.000000 -0.508937 -1.145890
v 0.000000 -0.131293 -1.077525
v 0.000000 0.246351 -1.009161
v 0.000000 -1.217382 -2.351468
v 0.000000 -0.846068 -2.259682
v 0.000000 -0.474754 -2.122319
v 0.000000 -0.103441 -1.984957
v 0.000000 0.267873 -1.908363
vt 0.583333 0.375000
vt 0.625000 0.375000
vt 0.625000 0.500000
vt 0.583333 0.500000
vt 0.625000 0.750000
vt 0.583333 0.750000
vt 0.250000 0.500000
vt 0.375000 0.500000
vt 0.375000 0.750000
vt 0.250000 0.750000
vt 0.416667 0.500000
vt 0.416667 0.750000
vt 0.458333 0.500000
vt 0.458333 0.750000
vt 0.500000 0.500000
vt 0.500000 0.750000
vt 0.541667 0.500000
vt 0.541667 0.750000
vt 0.375000 0.375000
vt 0.416667 0.375000
vt 0.458333 0.375000
vt 0.500000 0.375000
vt 0.541667 0.375000
vt 0.583333 0.875000
vt 0.541667 0.875000
vt 0.500000 0.875000
vt 0.458333 0.875000
vt 0.416667 0.875000
vt 0.375000 0.875000
vt 0.750000 0.500000
vt 0.750000 0.750000
vt 0.625000 0.875000
vt 0.583333 0.500000
vt 0.625000 0.500000
vt 0.583333 0.750000
vt 0.625000 0.750000
vt 0.375000 0.750000
vt 0.375000 0.500000
vt 0.416667 0.750000
vt 0.416667 0.500000
vt 0.458333 0.750000
vt 0.458333 0.500000
vt 0.500000 0.750000
vt 0.500000 0.500000
vt 0.541667 0.750000
vt 0.541667 0.500000
vn 0.0000 0.4345 -0.9007
vn 1.0000 0.0000 0.0000
vn 0.0000 -0.9986 -0.0521
vn 0.0000 0.0528 -0.9986
vn 0.0000 0.2400 -0.9708
vn 0.0000 0.3470 -0.9379
vn 0.0000 0.2020 -0.9794
vn 0.0000 -0.1781 0.9840
vn 0.0000 0.9998 0.0193
vn -1.0000 0.0000 0.0000
usemtl Material.004
s off
f 42/1/1 30/2/1 4/3/1 5/4/1
f 5/4/2 4/3/2 2/5/2 10/6/2
f 29/7/3 3/8/3 1/9/3 31/10/3
f 3/8/2 9/11/2 14/12/2 1/9/2
f 9/11/2 8/13/2 13/14/2 14/12/2
f 8/13/2 7/15/2 12/16/2 13/14/2
f 7/15/2 6/17/2 11/18/2 12/16/2
f 6/17/2 5/4/2 10/6/2 11/18/2
f 29/19/4 38/20/4 9/11/4 3/8/4
f 38/20/5 39/21/5 8/13/5 9/11/5
f 39/21/6 40/22/6 7/15/6 8/13/6
f 40/22/6 41/23/6 6/17/6 7/15/6
f 41/23/7 42/1/7 5/4/7 6/17/7
f 11/18/8 10/6/8 37/24/8 36/25/8
f 12/16/8 11/18/8 36/25/8 35/26/8
f 13/14/8 12/16/8 35/26/8 34/27/8
f 14/12/8 13/14/8 34/27/8 33/28/8
f 1/9/8 14/12/8 33/28/8 31/29/8
f 4/3/9 30/30/9 32/31/9 2/5/9
f 10/6/8 2/5/8 32/32/8 37/24/8
f 42/1/1 19/33/1 18/34/1 30/2/1
f 19/33/10 24/35/10 16/36/10 18/34/10
f 29/7/3 31/10/3 15/37/3 17/38/3
f 17/38/10 15/37/10 28/39/10 23/40/10
f 23/40/10 28/39/10 27/41/10 22/42/10
f 22/42/10 27/41/10 26/43/10 21/44/10
f 21/44/10 26/43/10 25/45/10 20/46/10
f 20/46/10 25/45/10 24/35/10 19/33/10
f 29/19/4 17/38/4 23/40/4 38/20/4
f 38/20/5 23/40/5 22/42/5 39/21/5
f 39/21/6 22/42/6 21/44/6 40/22/6
f 40/22/6 21/44/6 20/46/6 41/23/6
f 41/23/7 20/46/7 19/33/7 42/1/7
f 25/45/8 36/25/8 37/24/8 24/35/8
f 26/43/8 35/26/8 36/25/8 25/45/8
f 27/41/8 34/27/8 35/26/8 26/43/8
f 28/39/8 33/28/8 34/27/8 27/41/8
f 15/37/8 31/29/8 33/28/8 28/39/8
f 18/34/9 16/36/9 32/31/9 30/30/9
f 24/35/8 37/24/8 32/32/8 16/36/8
