# Blender v2.91.0 OBJ File: 'glock18.blend'
# www.blender.org
mtllib main body1.mtl
o trigger_edges?_Cube.004
v 0.478905 0.509862 -0.107736
v 0.478905 0.492054 0.000380
v 0.478905 0.462799 0.081785
v 0.478905 0.419553 0.160646
v 0.478905 0.373763 0.220427
v 0.478905 0.306349 0.264946
v 0.478905 0.231304 0.290385
v 0.478905 0.130820 0.287841
v 0.478905 0.051959 0.259858
v 0.478905 -0.005279 0.202620
v 0.478905 -0.054885 0.126303
v 0.478905 -0.090500 0.032178
v 0.478905 -0.109579 -0.058130
v 0.478905 -0.119755 -0.147167
v 0.478905 -0.118483 -0.425725
v 0.478905 -0.093044 -0.566912
v 0.478905 -0.035806 -0.683931
v 0.478905 0.034151 -0.755161
v 0.478905 0.133364 -0.789503
v 0.478905 0.251655 -0.790775
v 0.478905 0.333060 -0.755161
v 0.478905 0.395386 -0.710642
v 0.478905 0.443720 -0.640685
v 0.478905 0.480607 -0.547832
v 0.478905 0.504774 -0.454980
v 0.478905 0.509862 -0.390110
v -0.478905 0.509862 -0.107736
v -0.478905 0.492054 0.000380
v -0.478905 0.462799 0.081785
v -0.478905 0.419553 0.160646
v -0.478905 0.373763 0.220427
v -0.478905 0.306349 0.264946
v -0.478905 0.231304 0.290385
v -0.478905 0.130820 0.287841
v -0.478905 0.051959 0.259858
v -0.478905 -0.005279 0.202620
v -0.478905 -0.054885 0.126303
v -0.478905 -0.090500 0.032178
v -0.478905 -0.109579 -0.058130
v -0.478905 -0.119755 -0.147167
v -0.478905 -0.118483 -0.425725
v -0.478905 -0.093044 -0.566912
v -0.478905 -0.035806 -0.683931
v -0.478905 0.034151 -0.755161
v -0.478905 0.133364 -0.789503
v -0.478905 0.251655 -0.790775
v -0.478905 0.333060 -0.755161
v -0.478905 0.395386 -0.710642
v -0.478905 0.443720 -0.640685
v -0.478905 0.480607 -0.547832
v -0.478905 0.504774 -0.454980
v -0.478905 0.509862 -0.390110
v 0.000000 0.509862 -0.107736
v 0.000000 0.492054 0.000380
v 0.000000 0.462799 0.081785
v 0.000000 0.419553 0.160646
v 0.000000 0.373763 0.220427
v 0.000000 0.306349 0.264946
v 0.000000 0.231304 0.290385
v 0.000000 0.130820 0.287841
v 0.000000 0.051959 0.259858
v 0.000000 -0.005279 0.202620
v 0.000000 -0.054885 0.126303
v 0.000000 -0.090500 0.032178
v 0.000000 -0.109579 -0.058130
v 0.000000 -0.119755 -0.147167
v 0.000000 -0.118483 -0.425725
v 0.000000 -0.093044 -0.566912
v 0.000000 -0.035806 -0.683931
v 0.000000 0.034151 -0.755161
v 0.000000 0.133364 -0.789503
v 0.000000 0.251655 -0.790775
v 0.000000 0.333060 -0.755161
v 0.000000 0.395386 -0.710642
v 0.000000 0.443720 -0.640685
v 0.000000 0.480607 -0.547832
v 0.000000 0.504774 -0.454980
v 0.000000 0.509862 -0.390110
vt 0.375000 0.601351
vt 0.375000 0.597232
vt 0.375000 0.597232
vt 0.375000 0.601351
vt 0.375000 0.657386
vt 0.375000 0.657104
vt 0.375000 0.657104
vt 0.375000 0.657386
vt 0.375000 0.598013
vt 0.375000 0.600064
vt 0.375000 0.600064
vt 0.375000 0.598013
vt 0.375000 0.608149
vt 0.375000 0.611529
vt 0.375000 0.611529
vt 0.375000 0.608149
vt 0.375000 0.626942
vt 0.375000 0.633347
vt 0.375000 0.633347
vt 0.375000 0.626942
vt 0.375000 0.596260
vt 0.375000 0.596260
vt 0.375000 0.656780
vt 0.375000 0.656780
vt 0.375000 0.638671
vt 0.375000 0.638671
vt 0.375000 0.595275
vt 0.375000 0.595275
vt 0.375000 0.657081
vt 0.375000 0.657081
vt 0.375000 0.644383
vt 0.375000 0.644383
vt 0.375000 0.656846
vt 0.375000 0.654049
vt 0.375000 0.654049
vt 0.375000 0.656846
vt 0.375000 0.595050
vt 0.375000 0.595050
vt 0.375000 0.603769
vt 0.375000 0.603769
vt 0.375000 0.649205
vt 0.375000 0.649205
vt 0.375000 0.596624
vt 0.375000 0.596624
vt 0.375000 0.653548
vt 0.375000 0.653548
vt 0.375000 0.646025
vt 0.375000 0.646025
vt 0.375000 0.615266
vt 0.375000 0.615266
vt 0.375000 0.656345
vt 0.375000 0.656345
vt 0.375000 0.601351
vt 0.375000 0.597232
vt 0.375000 0.657386
vt 0.375000 0.657104
vt 0.375000 0.598013
vt 0.375000 0.600064
vt 0.375000 0.608149
vt 0.375000 0.611529
vt 0.375000 0.626942
vt 0.375000 0.633347
vt 0.375000 0.596260
vt 0.375000 0.656780
vt 0.375000 0.638671
vt 0.375000 0.595275
vt 0.375000 0.657081
vt 0.375000 0.644383
vt 0.375000 0.656846
vt 0.375000 0.654049
vt 0.375000 0.595050
vt 0.375000 0.603769
vt 0.375000 0.649205
vt 0.375000 0.596624
vt 0.375000 0.653548
vt 0.375000 0.646025
vt 0.375000 0.615266
vt 0.375000 0.656345
vn 0.0000 0.8983 0.4394
vn 0.0000 0.3344 -0.9424
vn 0.0000 -0.8227 0.5684
vn 0.0000 -0.9969 0.0782
vn 0.0000 -0.9867 -0.1625
vn 0.0000 0.7134 0.7007
vn 0.0000 0.7071 -0.7071
vn 0.0000 -1.0000 0.0000
vn 0.0000 -0.9411 -0.3382
vn 0.0000 0.3271 0.9450
vn 0.0000 0.8384 -0.5450
vn 0.0000 -0.8768 -0.4808
vn 0.0000 0.9784 -0.2067
vn 0.0000 0.0108 0.9999
vn 0.0000 -0.9294 0.3692
vn 0.0000 -0.7939 -0.6081
vn 0.0000 -0.4008 0.9162
vn 0.0000 -0.9678 0.2519
vn 0.0000 -0.5511 -0.8345
vn 0.0000 0.9935 -0.1135
vn 0.0000 -0.5812 0.8137
vn 0.0000 1.0000 0.0046
vn 0.0000 -0.3210 -0.9471
vn 0.0000 0.9842 0.1773
vn 0.0000 0.0253 -0.9997
vn 0.0000 0.9353 -0.3539
usemtl Material.006
s off
f 16/1/1 17/2/1 69/3/1 68/4/1
f 8/5/2 9/6/2 61/7/2 60/8/2
f 22/9/3 23/10/3 75/11/3 74/12/3
f 25/13/4 26/14/4 78/15/4 77/16/4
f 1/17/5 2/18/5 54/19/5 53/20/5
f 17/2/6 18/21/6 70/22/6 69/3/6
f 9/6/7 10/23/7 62/24/7 61/7/7
f 26/14/8 1/17/8 53/20/8 78/15/8
f 2/18/9 3/25/9 55/26/9 54/19/9
f 18/21/10 19/27/10 71/28/10 70/22/10
f 10/23/11 11/29/11 63/30/11 62/24/11
f 3/25/12 4/31/12 56/32/12 55/26/12
f 12/33/13 13/34/13 65/35/13 64/36/13
f 19/27/14 20/37/14 72/38/14 71/28/14
f 23/10/15 24/39/15 76/40/15 75/11/15
f 4/31/16 5/41/16 57/42/16 56/32/16
f 20/37/17 21/43/17 73/44/17 72/38/17
f 24/39/18 25/13/18 77/16/18 76/40/18
f 5/41/19 6/45/19 58/46/19 57/42/19
f 13/34/20 14/47/20 66/48/20 65/35/20
f 21/43/21 22/9/21 74/12/21 73/44/21
f 14/47/22 15/49/22 67/50/22 66/48/22
f 6/45/23 7/51/23 59/52/23 58/46/23
f 15/49/24 16/1/24 68/4/24 67/50/24
f 7/51/25 8/5/25 60/8/25 59/52/25
f 11/29/26 12/33/26 64/36/26 63/30/26
f 42/53/1 68/4/1 69/3/1 43/54/1
f 34/55/2 60/8/2 61/7/2 35/56/2
f 48/57/3 74/12/3 75/11/3 49/58/3
f 51/59/4 77/16/4 78/15/4 52/60/4
f 27/61/5 53/20/5 54/19/5 28/62/5
f 43/54/6 69/3/6 70/22/6 44/63/6
f 35/56/7 61/7/7 62/24/7 36/64/7
f 52/60/8 78/15/8 53/20/8 27/61/8
f 28/62/9 54/19/9 55/26/9 29/65/9
f 44/63/10 70/22/10 71/28/10 45/66/10
f 36/64/11 62/24/11 63/30/11 37/67/11
f 29/65/12 55/26/12 56/32/12 30/68/12
f 38/69/13 64/36/13 65/35/13 39/70/13
f 45/66/14 71/28/14 72/38/14 46/71/14
f 49/58/15 75/11/15 76/40/15 50/72/15
f 30/68/16 56/32/16 57/42/16 31/73/16
f 46/71/17 72/38/17 73/44/17 47/74/17
f 50/72/18 76/40/18 77/16/18 51/59/18
f 31/73/19 57/42/19 58/46/19 32/75/19
f 39/70/20 65/35/20 66/48/20 40/76/20
f 47/74/21 73/44/21 74/12/21 48/57/21
f 40/76/22 66/48/22 67/50/22 41/77/22
f 32/75/23 58/46/23 59/52/23 33/78/23
f 41/77/24 67/50/24 68/4/24 42/53/24
f 33/78/25 59/52/25 60/8/25 34/55/25
f 37/67/26 63/30/26 64/36/26 38/69/26
