# Blender v2.91.0 OBJ File: 'glock18.blend'
# www.blender.org
mtllib main body2.mtl
o blue_boi_on_body_Cube.002
v 0.437859 0.632159 -1.555832
v 0.437859 0.898682 -2.083550
v 0.437859 0.824536 -2.117446
v 0.437859 0.752509 -2.181000
v 0.437859 0.701666 -2.255145
v 0.437859 0.646586 -2.365305
v 0.437859 0.635994 -2.407674
v 0.437859 0.589388 -2.361068
v 0.437859 0.557611 -2.282685
v 0.437859 0.527953 -2.189473
v 0.437859 0.462281 -2.085669
v 0.437859 0.366950 -1.992457
v 0.437859 0.244080 -1.954325
v 0.437859 0.225014 -1.926785
v -0.437859 0.632159 -1.555832
v -0.437859 0.898682 -2.083550
v -0.437859 0.824536 -2.117446
v -0.437859 0.752509 -2.181000
v -0.437859 0.701666 -2.255145
v -0.437859 0.646586 -2.365305
v -0.437859 0.635994 -2.407674
v -0.437859 0.589388 -2.361068
v -0.437859 0.557611 -2.282685
v -0.437859 0.527953 -2.189473
v -0.437859 0.462281 -2.085669
v -0.437859 0.366950 -1.992457
v -0.437859 0.244080 -1.954325
v -0.437859 0.225014 -1.926785
v -0.437859 0.632159 -1.555832
v -0.437859 0.898682 -2.083550
v -0.437859 0.824536 -2.117446
v -0.437859 0.752509 -2.181000
v -0.437859 0.701666 -2.255145
v -0.437859 0.646586 -2.365305
v -0.437859 0.635994 -2.407674
v -0.437859 0.589388 -2.361068
v -0.437859 0.557611 -2.282685
v -0.437859 0.527953 -2.189473
v -0.437859 0.462281 -2.085669
v -0.437859 0.366950 -1.992457
v -0.437859 0.244080 -1.954325
v -0.437859 0.225014 -1.926785
v 0.437859 0.632159 -1.555832
v 0.437859 0.898682 -2.083550
v 0.437859 0.824536 -2.117446
v 0.437859 0.752509 -2.181000
v 0.437859 0.701666 -2.255145
v 0.437859 0.646586 -2.365305
v 0.437859 0.635994 -2.407674
v 0.437859 0.589388 -2.361068
v 0.437859 0.557611 -2.282685
v 0.437859 0.527953 -2.189473
v 0.437859 0.462281 -2.085669
v 0.437859 0.366950 -1.992457
v 0.437859 0.244080 -1.954325
v 0.437859 0.225014 -1.926785
vt 0.381252 0.509523
vt 0.380234 0.503026
vt 0.385123 0.503165
vt 0.386685 0.502192
vt 0.385601 0.501448
vt 0.381836 0.500922
vt 0.379023 0.500721
vt 0.376217 0.500447
vt 0.378645 0.500713
vt 0.420340 0.501119
vt 0.470767 0.501666
vt 0.537219 0.501995
vt 0.602826 0.502086
vt 0.401106 0.545134
vt 0.381252 0.509523
vt 0.401106 0.545134
vt 0.602826 0.502086
vt 0.537219 0.501995
vt 0.470767 0.501666
vt 0.420340 0.501119
vt 0.378645 0.500713
vt 0.376217 0.500447
vt 0.379023 0.500721
vt 0.381836 0.500922
vt 0.385601 0.501448
vt 0.386685 0.502192
vt 0.385123 0.503165
vt 0.380234 0.503026
vt 0.381252 0.509523
vt 0.401106 0.545134
vt 0.602826 0.502086
vt 0.537219 0.501995
vt 0.470767 0.501666
vt 0.420340 0.501119
vt 0.378645 0.500713
vt 0.376217 0.500447
vt 0.379023 0.500721
vt 0.381836 0.500922
vt 0.385601 0.501448
vt 0.386685 0.502192
vt 0.385123 0.503165
vt 0.380234 0.503026
vt 0.381252 0.509523
vt 0.380234 0.503026
vt 0.385123 0.503165
vt 0.386685 0.502192
vt 0.385601 0.501448
vt 0.381836 0.500922
vt 0.379023 0.500721
vt 0.376217 0.500447
vt 0.378645 0.500713
vt 0.420340 0.501119
vt 0.470767 0.501666
vt 0.537219 0.501995
vt 0.602826 0.502086
vt 0.401106 0.545134
vn 1.0000 -0.0000 0.0000
vn -1.0000 -0.0000 0.0000
usemtl Material.003
s off
f 14/1/1 13/2/1 12/3/1 11/4/1 10/5/1 9/6/1 8/7/1 7/8/1 6/9/1 5/10/1 4/11/1 3/12/1 2/13/1 1/14/1
f 28/15/2 15/16/2 16/17/2 17/18/2 18/19/2 19/20/2 20/21/2 21/22/2 22/23/2 23/24/2 24/25/2 25/26/2 26/27/2 27/28/2
f 42/29/2 29/30/2 30/31/2 31/32/2 32/33/2 33/34/2 34/35/2 35/36/2 36/37/2 37/38/2 38/39/2 39/40/2 40/41/2 41/42/2
f 56/43/1 55/44/1 54/45/1 53/46/1 52/47/1 51/48/1 50/49/1 49/50/1 48/51/1 47/52/1 46/53/1 45/54/1 44/55/1 43/56/1
